<svg width="32" height="28" viewBox="0 0 32 28" fill="none" xmlns="http://www.w3.org/2000/svg">
<path fill-rule="evenodd" clip-rule="evenodd" d="M3.15186 0H28.3667C30.1075 0 31.5186 1.2536 31.5186 2.8V25.2C31.5186 26.7464 30.1075 28 28.3667 28H3.15186C1.41114 28 0 26.7464 0 25.2V2.8C0 1.2536 1.41114 0 3.15186 0ZM3.15185 2.80001V25.2H28.3667V2.80001H3.15185ZM14.3931 14.0061H17.3352V22.4H20.4871V14.0061H23.6113V11.2061H20.4871V9.8C20.4871 9.0268 21.1927 8.39999 22.063 8.39999H23.639V5.59999H22.063C19.4519 5.59999 17.3352 7.4804 17.3352 9.8V11.2061H14.3931V14.0061Z" fill="#2D3034"/>
</svg>
