<svg width="19" height="16" viewBox="0 0 19 16" fill="none" xmlns="http://www.w3.org/2000/svg">
<path fill-rule="evenodd" clip-rule="evenodd" d="M1.80106 0H16.2096C17.2043 0 18.0106 0.716344 18.0106 1.6V14.4C18.0106 15.2837 17.2043 16 16.2096 16H1.80106C0.806363 16 0 15.2837 0 14.4V1.6C0 0.716344 0.806363 0 1.80106 0ZM1.80106 1.6V14.4H16.2096V1.6H1.80106ZM8.2246 8.00352H9.90585V12.8H11.7069V8.00352H13.4921V6.40352H11.7069V5.6C11.7069 5.15817 12.1101 4.8 12.6074 4.8H13.508V3.2H12.6074C11.1154 3.2 9.90585 4.27452 9.90585 5.6V6.40352H8.2246V8.00352Z" fill="#C3CBCD"/>
</svg>
