<svg width="32" height="28" viewBox="0 0 32 28" fill="none" xmlns="http://www.w3.org/2000/svg">
<path fill-rule="evenodd" clip-rule="evenodd" d="M22.1002 0H9.49278C4.27061 0 0.0372009 3.76081 0.0372009 8.4V19.6C0.0372009 24.2392 4.27061 28 9.49278 28H22.1002C27.3224 28 31.5558 24.2392 31.5558 19.6V8.4C31.5558 3.76081 27.3224 0 22.1002 0ZM3.1891 8.40001C3.1891 5.30722 6.01137 2.80001 9.49282 2.80001H22.1003C25.5817 2.80001 28.404 5.30722 28.404 8.40001V19.6C28.404 22.6928 25.5817 25.2 22.1003 25.2H9.49282C6.01137 25.2 3.1891 22.6928 3.1891 19.6V8.40001ZM15.7965 21C11.4447 21 7.91687 17.866 7.91687 14C7.91687 10.134 11.4447 7 15.7965 7C20.1483 7 23.6762 10.134 23.6762 14C23.6762 17.866 20.1483 21 15.7965 21ZM15.7965 18.2C18.4076 18.2 20.5243 16.3196 20.5243 14C20.5243 11.6804 18.4076 9.80001 15.7965 9.80001C13.1854 9.80001 11.0687 11.6804 11.0687 14C11.0687 16.3196 13.1854 18.2 15.7965 18.2ZM25.2521 6.99999C25.2521 7.77319 24.5465 8.39999 23.6762 8.39999C22.8058 8.39999 22.1002 7.77319 22.1002 6.99999C22.1002 6.2268 22.8058 5.59999 23.6762 5.59999C24.5465 5.59999 25.2521 6.2268 25.2521 6.99999Z" fill="#2D3034"/>
</svg>
