<svg width="19" height="16" viewBox="0 0 19 16" fill="none" xmlns="http://www.w3.org/2000/svg">
<path fill-rule="evenodd" clip-rule="evenodd" d="M12.6287 0H5.42443C2.44033 0 0.0212402 2.14903 0.0212402 4.8V11.2C0.0212402 13.851 2.44033 16 5.42443 16H12.6287C15.6128 16 18.0319 13.851 18.0319 11.2V4.8C18.0319 2.14903 15.6128 0 12.6287 0ZM1.82232 4.8C1.82232 3.03269 3.43505 1.6 5.42445 1.6H12.6287C14.6181 1.6 16.2308 3.03269 16.2308 4.8V11.2C16.2308 12.9673 14.6181 14.4 12.6287 14.4H5.42445C3.43505 14.4 1.82232 12.9673 1.82232 11.2V4.8ZM9.02657 12C6.53982 12 4.52391 10.2091 4.52391 8C4.52391 5.79086 6.53982 4 9.02657 4C11.5133 4 13.5292 5.79086 13.5292 8C13.5292 10.2091 11.5133 12 9.02657 12ZM9.02657 10.4C10.5186 10.4 11.7282 9.32548 11.7282 8C11.7282 6.67452 10.5186 5.6 9.02657 5.6C7.53452 5.6 6.32498 6.67452 6.32498 8C6.32498 9.32548 7.53452 10.4 9.02657 10.4ZM14.4298 4C14.4298 4.44183 14.0266 4.8 13.5292 4.8C13.0319 4.8 12.6287 4.44183 12.6287 4C12.6287 3.55817 13.0319 3.2 13.5292 3.2C14.0266 3.2 14.4298 3.55817 14.4298 4Z" fill="#C3CBCD"/>
</svg>
