<svg width="128" height="17" viewBox="0 0 128 17" fill="none" xmlns="http://www.w3.org/2000/svg">
<path fill-rule="evenodd" clip-rule="evenodd" d="M8.5 13.4061L3.24671 16.168L4.25 10.3183L0 6.17561L5.87336 5.32216L8.5 0L11.1266 5.32216L17 6.17561L12.75 10.3183L13.7533 16.168L8.5 13.4061Z" fill="#FAA900"/>
<path fill-rule="evenodd" clip-rule="evenodd" d="M35.5 13.4061L30.2467 16.168L31.25 10.3183L27 6.17561L32.8734 5.32216L35.5 0L38.1266 5.32216L44 6.17561L39.75 10.3183L40.7533 16.168L35.5 13.4061Z" fill="#FAA900"/>
<path fill-rule="evenodd" clip-rule="evenodd" d="M64.5 13.4061L59.2467 16.168L60.25 10.3183L56 6.17561L61.8734 5.32216L64.5 0L67.1266 5.32216L73 6.17561L68.75 10.3183L69.7533 16.168L64.5 13.4061Z" fill="#FAA900"/>
<path fill-rule="evenodd" clip-rule="evenodd" d="M91.5 13.4061L86.2467 16.168L87.25 10.3183L83 6.17561L88.8734 5.32216L91.5 0L94.1266 5.32216L100 6.17561L95.75 10.3183L96.7533 16.168L91.5 13.4061Z" fill="#FAA900"/>
<path fill-rule="evenodd" clip-rule="evenodd" d="M119.5 13.4061L114.247 16.168L115.25 10.3183L111 6.17561L116.873 5.32216L119.5 0L122.127 5.32216L128 6.17561L123.75 10.3183L124.753 16.168L119.5 13.4061Z" fill="#FAA900"/>
</svg>
