<svg width="33" height="27" viewBox="0 0 33 27" fill="none" xmlns="http://www.w3.org/2000/svg">
<path fill-rule="evenodd" clip-rule="evenodd" d="M30.2055 3.51158L32.435 3.74289L31.4328 5.5272C30.9441 6.39734 30.4548 7.26747 29.9651 8.13761C29.907 8.3219 29.805 8.48347 29.6541 8.69382C29.591 8.78172 29.3755 9.0613 29.3655 9.07472C29.3086 9.15052 29.2665 9.21029 29.2362 9.25818V12.6021C29.2362 21.1589 19.9146 26.5964 11.1115 26.5964C9.31016 26.5964 7.94155 26.5197 6.37441 26.2159C3.79541 25.716 1.87612 24.7221 0.997855 22.9852L0.093645 21.1969L2.29109 21.0174C4.27899 20.855 6.00256 20.5186 7.32618 20.0681C3.69237 19.5489 1.65601 18.1311 1.65601 15.4684V14.0684H3.23194C3.57819 14.0684 3.8904 14.0435 4.16953 13.9977C1.44231 12.5491 0.0763273 10.2253 0.0763273 7.00213C0.0760293 6.86475 0.0760293 6.86475 0.0750993 6.71786C0.064854 5.09324 0.163083 4.22515 0.663718 3.11723C0.98457 2.40717 1.44835 1.74984 2.07252 1.14754L3.26174 0L4.41794 1.17385C8.22817 5.04225 11.9947 7.38913 15.8403 7.67301C15.8567 4.10347 18.8934 1.40213 22.9322 1.40213C24.8151 1.40213 26.5229 2.03702 27.8651 3.18182C28.5997 3.31591 29.3799 3.42593 30.2055 3.51158ZM26.7212 5.82682L26.2381 5.72963L25.9045 5.40438C25.0978 4.61796 24.0852 4.20213 22.9322 4.20213C20.6267 4.20213 18.9921 5.66146 18.9921 7.70213C18.9921 8.03563 18.9824 8.24518 18.9356 8.5206C18.749 9.61962 18.0551 10.5021 16.6281 10.5021C11.9034 10.5021 7.64101 8.25358 3.48455 4.41319C3.27028 4.99185 3.21988 5.58666 3.22692 6.70217C3.22787 6.85136 3.22787 6.85136 3.2282 7.00213C3.2282 9.86934 4.53577 11.4377 7.63173 12.3119L8.73029 12.622V13.6461C8.73029 14.8879 7.40598 16.0568 5.46832 16.5804C6.35656 17.1791 8.17312 17.5021 11.1121 17.5021H12.688V18.9021C12.688 20.908 10.0936 22.4785 6.17444 23.2986C7.45257 23.6465 9.15438 23.7964 11.1115 23.7964C18.3835 23.7964 26.0844 19.3043 26.0844 12.6021V9.10213C26.0844 8.69083 26.2186 8.33382 26.4415 7.96262C26.5287 7.81749 26.6247 7.67913 26.7431 7.52132C26.7654 7.49161 26.8482 7.38396 26.9139 7.2979L27.0388 7.076C27.2412 6.71642 27.4435 6.35685 27.6457 5.99727C27.3314 5.94438 27.0233 5.88757 26.7212 5.82682Z" fill="#2D3034"/>
</svg>
