<svg width="21" height="19" viewBox="0 0 21 19" fill="none" xmlns="http://www.w3.org/2000/svg">
<path fill-rule="evenodd" clip-rule="evenodd" d="M19.162 2.50827L20.5768 2.67349L19.9408 3.948C19.6307 4.56953 19.3203 5.19105 19.0095 5.81258C18.9727 5.94422 18.9079 6.05962 18.8121 6.20987C18.7721 6.27265 18.6354 6.47236 18.629 6.48194C18.5929 6.53608 18.5662 6.57878 18.547 6.61299V9.00152C18.547 15.1135 12.632 18.9974 7.04602 18.9974C5.90299 18.9974 5.03455 18.9427 4.04013 18.7257C2.40363 18.3685 1.18575 17.6587 0.628454 16.418L0.0546911 15.1407L1.44907 15.0124C2.71049 14.8964 3.80417 14.6561 4.64407 14.3343C2.33825 13.9635 1.04608 12.9508 1.04608 11.0489V10.0489H2.04608C2.26579 10.0489 2.46391 10.0311 2.64102 9.99834C0.910481 8.96365 0.0437022 7.30379 0.0437022 5.00152C0.0435131 4.9034 0.0435131 4.90339 0.042923 4.79847C0.0364219 3.63803 0.0987526 3.01797 0.416428 2.22659C0.620024 1.71941 0.914311 1.24988 1.31038 0.819668L2.06499 0L2.79865 0.838468C5.21642 3.60161 7.60643 5.27795 10.0467 5.48072C10.0571 2.93105 11.984 1.00152 14.5468 1.00152C15.7416 1.00152 16.8253 1.45501 17.677 2.27273C18.1431 2.36851 18.6381 2.44709 19.162 2.50827ZM16.9511 4.16202L16.6446 4.0926L16.4328 3.86028C15.9209 3.29855 15.2784 3.00152 14.5468 3.00152C13.0838 3.00152 12.0466 4.04391 12.0466 5.50152C12.0466 5.73974 12.0404 5.88942 12.0108 6.08615C11.8924 6.87116 11.452 7.50152 10.5466 7.50152C7.54855 7.50152 4.84384 5.89542 2.20637 3.15228C2.0704 3.56561 2.03843 3.99047 2.04289 4.78727C2.04349 4.89384 2.04349 4.89384 2.0437 5.00152C2.0437 7.04953 2.87341 8.16977 4.83795 8.79419L5.53504 9.01575V9.7472C5.53504 10.6342 4.6947 11.4691 3.46516 11.8431C4.02879 12.2708 5.18148 12.5015 7.04637 12.5015H8.04637V13.5015C8.04637 14.9343 6.4001 16.0561 3.91323 16.6419C4.72426 16.8903 5.80414 16.9974 7.04602 16.9974C11.6604 16.9974 16.547 13.7888 16.547 9.00152V6.50152C16.547 6.20774 16.6322 5.95273 16.7736 5.68759C16.8289 5.58393 16.8899 5.48509 16.965 5.37237C16.9792 5.35115 17.0317 5.27426 17.0733 5.21279L17.1526 5.05429C17.281 4.79745 17.4094 4.54061 17.5377 4.28377C17.3383 4.24599 17.1428 4.20541 16.9511 4.16202Z" fill="#C3CBCD"/>
</svg>
